<?xml version="1.0" encoding="UTF-8" standalone="no"?>
<svg
   version="1.1"
   width="1200pt"
   height="1200pt"
   viewBox="0 0 1200 1200"
   id="svg84"
   sodipodi:docname="Correkt_Logo_White.svg"
   inkscape:version="1.2.2 (b0a84865, 2022-12-01)"
   xmlns:inkscape="http://www.inkscape.org/namespaces/inkscape"
   xmlns:sodipodi="http://sodipodi.sourceforge.net/DTD/sodipodi-0.dtd"
   xmlns="http://www.w3.org/2000/svg"
   xmlns:svg="http://www.w3.org/2000/svg">
  <defs
     id="defs88" />
  <sodipodi:namedview
     id="namedview86"
     pagecolor="#ffffff"
     bordercolor="#000000"
     borderopacity="0.25"
     inkscape:showpageshadow="2"
     inkscape:pageopacity="0.0"
     inkscape:pagecheckerboard="0"
     inkscape:deskcolor="#d1d1d1"
     inkscape:document-units="pt"
     showgrid="false"
     inkscape:zoom="0.16658875"
     inkscape:cx="519.24275"
     inkscape:cy="636.29747"
     inkscape:window-width="1401"
     inkscape:window-height="862"
     inkscape:window-x="0"
     inkscape:window-y="38"
     inkscape:window-maximized="0"
     inkscape:current-layer="g82"
     showguides="true" />
  <g
     enable-background="new"
     id="g82"
     transform="translate(4.2145153)">
    <clipPath
       id="cp0">
      <path
         d="M 0,0 H 1200 V 1200 H 0 Z"
         id="path64" />
    </clipPath>
    <path
       d="m -992.02121,1696.7787 c 173.10605,0 327.72502,-58.8224 431.92481,-173.1061 l -78.99029,-78.9899 c -95.79637,99.1577 -213.44126,141.1737 -347.89263,141.1737 -284.02828,0 -497.46968,-208.3995 -497.46968,-487.3858 0,-278.98642 213.4414,-487.38592 497.46968,-487.38592 134.45137,0 252.09626,42.016 347.89263,139.4932 l 78.99029,-78.9901 c -104.19979,-114.2836 -258.81876,-171.4254 -430.2442,-171.4254 -354.6152,0 -616.7952,253.7768 -616.7952,598.30822 0,344.5313 262.18,598.3081 615.11459,598.3081 z"
       id="path76"
       style="stroke-width:2.75779" />
    <path
       d="m 530.16378,784.65 c 2.0148,-1.02392 3.8976,-2.37821 5.549,-4.02966 l 298.9258,-298.92582 c 8.4887,-8.48867 8.4887,-22.22917 0.033,-30.68488 l -15.3589,-15.35892 c -8.4227,-8.42264 -22.1632,-8.42264 -30.652,0.033 L 520.36148,703.98298 401.58428,585.2058 c -8.4887,-8.52167 -22.1962,-8.48871 -30.6519,-0.033 l -15.3589,15.35894 c -8.4557,8.42263 -8.4557,22.1962 0.033,30.65189 l 149.3952,149.3953 c 6.8372,6.87027 17.0433,8.19145 25.1692,4.06267 z M 175.78548,602.78483 C 175.78548,369.29768 365.01558,180 598.57038,180 c 233.4871,0 422.78492,189.23003 422.78492,422.78483 0,233.48719 -189.23012,422.78477 -422.78492,422.78477 -233.4872,0 -422.7849,-189.22993 -422.7849,-422.78477 z"
       fill-rule="evenodd"
       id="path78"
       style="stroke-width:8.456;stroke-dasharray:none;fill:#ffffff;fill-opacity:1" />
    <path
       id="path3610"
       style="fill:#808000;fill-opacity:0;fill-rule:evenodd;stroke:#000000;stroke-width:110;stroke-dasharray:none;stroke-opacity:1"
       d="m 1939.5582,146.33205 -386.7832,386.78321 383.4112,383.41109 a 543.71613,543.71613 0 0 0 161.7187,-386.6689 543.71613,543.71613 0 0 0 -158.3467,-383.5254 z" />
    <path
       id="path17708"
       style="fill:none;fill-opacity:0.333333;fill-rule:evenodd;stroke:#ffffff;stroke-width:110;stroke-linecap:butt;stroke-dasharray:none;stroke-dashoffset:0;stroke-opacity:1"
       d="M 981.71175,217.25098 C 912.62189,147.82281 826.7273,98.974313 733.55466,74.665569 689.12763,63.074555 643.04585,57.062945 596.34213,57.060059 452.13958,57.06001 313.84318,114.34423 211.87659,216.31083 109.90999,318.27742 52.625769,456.57382 52.625817,600.77637 c -5.3e-5,144.20255 57.284163,282.49895 159.250763,384.46556 101.9666,101.96657 240.263,159.25077 384.46555,159.25077 143.03271,-0.066 280.27852,-56.4909 381.99755,-157.04739"
       sodipodi:nodetypes="cscssscc" />
    <circle
       id="path17615"
       style="fill:#808000;stroke:#000000;stroke-width:0.75"
       cx="261.93109"
       cy="247.79074"
       r="0.092403814" />
    <circle
       id="path17617"
       style="fill:#808000;stroke:#000000;stroke-width:0.75"
       cx="1113.5972"
       cy="89.938866"
       r="0.092403814" />
    <circle
       id="path17619"
       style="fill:#808000;stroke:#000000;stroke-width:0.75"
       cx="1111.7616"
       cy="88.103378"
       r="0.092403814" />
    <circle
       id="path17644"
       style="fill:#000000;stroke:none;stroke-width:0.75"
       cx="1032.9806"
       cy="69.512199"
       r="0.14999999" />
  </g>
</svg>
