<svg version="1.1" viewBox="0 0 1200 1200" xmlns="http://www.w3.org/2000/svg">
 <g transform="translate(4.2145)" enable-background="new">
  <clipPath>
   <path d="m0 0h1200v1200h-1200z"/>
  </clipPath>
  <path d="m530.16 784.65c2.0148-1.0239 3.8976-2.3782 5.549-4.0297l298.93-298.93c8.4887-8.4887 8.4887-22.229 0.033-30.685l-15.359-15.359c-8.4227-8.4226-22.163-8.4226-30.652 0.033l-268.3 268.3-118.78-118.78c-8.4887-8.5217-22.196-8.4887-30.652-0.033l-15.359 15.359c-8.4557 8.4226-8.4557 22.196 0.033 30.652l149.4 149.4c6.8372 6.8703 17.043 8.1914 25.169 4.0627zm-354.38-181.87c0-233.49 189.23-422.78 422.78-422.78 233.49 0 422.78 189.23 422.78 422.78 0 233.49-189.23 422.78-422.78 422.78-233.49 0-422.78-189.23-422.78-422.78z" fill-rule="evenodd" style="stroke-width:8.456"/>
  <path d="m981.71 217.25c-69.09-69.428-154.98-118.28-248.16-142.59-44.427-11.591-90.509-17.603-137.21-17.606-144.2-4.9e-5 -282.5 57.284-384.47 159.25-101.97 101.97-159.25 240.26-159.25 384.47-5.3e-5 144.2 57.284 282.5 159.25 384.47 101.97 101.97 240.26 159.25 384.47 159.25 143.03-0.066 280.28-56.491 382-157.05" style="fill:none;stroke-width:110;stroke:#000"/>
  <circle cx="261.93" cy="247.79" r=".092404" style="fill:#808000;stroke-width:.75;stroke:#000"/>
  <circle cx="1113.6" cy="89.939" r=".092404" style="fill:#808000;stroke-width:.75;stroke:#000"/>
  <circle cx="1111.8" cy="88.103" r=".092404" style="fill:#808000;stroke-width:.75;stroke:#000"/>
  <circle cx="1033" cy="69.512" r=".15"/>
 </g>
</svg>
